<svg width="469" height="100" viewBox="0 0 469 100" fill="none" xmlns="http://www.w3.org/2000/svg">
<path d="M195 20.0002V80H184.583V32.9168H184.444L165.833 80H158.889L139.861 32.9168H139.722V80H130.139V20.0002H145.139L162.361 64.4445H162.639L180.833 20.0002H195ZM203.611 24.5835C203.611 22.9169 204.166 21.528 205.416 20.4169C206.666 19.3058 208.055 18.7502 209.722 18.7502C211.527 18.7502 213.055 19.3058 214.166 20.4169C215.277 21.528 215.972 22.9169 215.972 24.5835C215.972 26.2502 215.416 27.6391 214.166 28.7502C212.916 29.8613 211.527 30.4168 209.722 30.4168C207.916 30.4168 206.527 29.8613 205.416 28.7502C204.305 27.5002 203.611 26.1113 203.611 24.5835ZM214.861 36.9446V80H204.722V36.9446H214.861ZM245.555 72.6389C247.083 72.6389 248.749 72.3611 250.555 71.5278C252.36 70.8333 254.027 69.8611 255.555 68.75V78.1944C253.888 79.1666 252.083 79.8611 249.999 80.2777C247.916 80.6944 245.694 80.9722 243.194 80.9722C236.805 80.9722 231.666 79.0277 227.777 75C223.749 70.9722 221.805 65.8334 221.805 59.7223C221.805 52.7779 223.888 47.0834 227.916 42.639C231.944 38.1946 237.638 35.9724 245.138 35.9724C247.083 35.9724 249.027 36.2501 250.833 36.6668C252.777 37.0835 254.305 37.7779 255.416 38.3335V48.0556C253.888 46.9445 252.222 45.9723 250.694 45.4168C249.027 44.8612 247.36 44.4446 245.694 44.4446C241.666 44.4446 238.472 45.6945 235.972 48.3334C233.472 50.9723 232.36 54.4445 232.36 58.8889C232.36 63.1945 233.61 66.6667 235.972 69.0278C238.333 71.3889 241.527 72.6389 245.555 72.6389ZM284.305 36.2501C285.138 36.2501 285.832 36.2501 286.527 36.389C287.221 36.5279 287.777 36.6668 288.194 36.8057V47.0834C287.638 46.6668 286.944 46.2501 285.832 45.9723C284.721 45.6945 283.61 45.4168 282.083 45.4168C279.583 45.4168 277.499 46.5279 275.833 48.6112C274.166 50.6945 273.194 53.889 273.194 58.3334V80H263.055V36.9446H273.194V43.7501H273.333C274.305 41.389 275.694 39.5835 277.499 38.1946C279.444 36.9446 281.666 36.2501 284.305 36.2501ZM288.749 59.1667C288.749 52.0834 290.832 46.389 294.721 42.2223C298.749 38.0557 304.305 35.9724 311.388 35.9724C318.055 35.9724 323.332 37.9168 327.082 41.9446C330.832 45.9723 332.777 51.389 332.777 58.1945C332.777 65.1389 330.693 70.6945 326.805 74.8611C322.777 79.0278 317.36 81.1111 310.416 81.1111C303.749 81.1111 298.471 79.1666 294.582 75.2778C290.694 71.25 288.749 65.8334 288.749 59.1667ZM299.305 58.7501C299.305 63.1945 300.277 66.6667 302.36 69.0278C304.443 71.3889 307.36 72.6389 311.11 72.6389C314.721 72.6389 317.638 71.5278 319.582 69.0278C321.527 66.6667 322.499 63.1945 322.499 58.4723C322.499 53.889 321.527 50.4168 319.582 47.9168C317.638 45.5557 314.721 44.3057 311.249 44.3057C307.499 44.3057 304.721 45.5557 302.638 48.0556C300.277 50.6945 299.305 54.1667 299.305 58.7501ZM347.916 48.3334C347.916 49.7223 348.332 50.9723 349.304 51.8056C350.277 52.639 352.221 53.6112 355.416 54.8612C359.443 56.5278 362.36 58.3334 363.888 60.2778C365.554 62.3612 366.388 64.7223 366.388 67.6389C366.388 71.6667 364.86 74.8611 361.665 77.3611C358.61 79.8611 354.304 80.9722 349.027 80.9722C347.221 80.9722 345.277 80.6944 343.054 80.2777C340.832 79.8611 339.027 79.3055 337.499 78.6111V68.6111C339.304 69.8611 341.388 70.9722 343.471 71.6667C345.554 72.3611 347.499 72.7778 349.304 72.7778C351.527 72.7778 353.332 72.5 354.304 71.8056C355.416 71.1111 355.971 70.1389 355.971 68.6111C355.971 67.2222 355.416 66.1111 354.304 65C353.193 64.0278 350.971 62.9167 347.916 61.6667C344.166 60.1389 341.527 58.3334 339.999 56.389C338.471 54.4445 337.638 51.9445 337.638 48.889C337.638 45.0001 339.166 41.8057 342.221 39.3057C345.277 36.8057 349.304 35.5557 354.166 35.5557C355.693 35.5557 357.36 35.6946 359.166 36.1113C360.971 36.5279 362.638 36.9446 363.888 37.3613V47.2223C362.499 46.389 360.971 45.5557 359.166 44.8612C357.36 44.1668 355.554 43.889 353.888 43.889C351.943 43.889 350.416 44.3057 349.443 45.0001C348.471 45.9723 347.916 46.9445 347.916 48.3334ZM370.693 59.1667C370.693 52.0834 372.777 46.389 376.665 42.2223C380.693 38.0557 386.249 35.9724 393.332 35.9724C399.999 35.9724 405.276 37.9168 409.026 41.9446C412.776 45.9723 414.721 51.389 414.721 58.1945C414.721 65.1389 412.637 70.6945 408.749 74.8611C404.721 79.0278 399.304 81.1111 392.36 81.1111C385.693 81.1111 380.415 79.1666 376.527 75.2778C372.777 71.25 370.693 65.8334 370.693 59.1667ZM381.249 58.7501C381.249 63.1945 382.221 66.6667 384.304 69.0278C386.388 71.3889 389.304 72.6389 393.054 72.6389C396.665 72.6389 399.582 71.5278 401.526 69.0278C403.471 66.6667 404.443 63.1945 404.443 58.4723C404.443 53.889 403.471 50.4168 401.526 47.9168C399.582 45.5557 396.665 44.3057 393.193 44.3057C389.443 44.3057 386.665 45.5557 384.582 48.0556C382.36 50.6945 381.249 54.1667 381.249 58.7501ZM448.471 45.2779H433.332V80H423.054V45.2779H415.832V36.9446H423.054V30.9724C423.054 26.528 424.582 22.778 427.499 19.8613C430.415 16.9447 434.165 15.5558 438.749 15.5558C439.999 15.5558 441.11 15.6947 442.082 15.6947C443.054 15.6947 443.887 15.9725 444.582 16.2502V25.0002C444.304 24.8613 443.61 24.5835 442.776 24.3058C441.943 24.028 440.971 23.8891 439.86 23.8891C437.776 23.8891 436.11 24.5835 434.999 25.8335C433.887 27.0835 433.332 29.1668 433.332 31.6668V36.8057H448.471V27.0835L458.61 24.028V36.8057H468.887V45.139H458.61V65.2778C458.61 67.9167 459.165 69.7222 459.998 70.8333C460.971 71.9444 462.498 72.5 464.582 72.5C465.137 72.5 465.832 72.3611 466.665 72.0833C467.498 71.8056 468.193 71.5278 468.748 71.1111V79.4444C468.054 79.8611 467.082 80.1389 465.554 80.4166C464.026 80.6944 462.637 80.8333 461.11 80.8333C456.804 80.8333 453.61 79.7222 451.526 77.5C449.443 75.2778 448.332 71.8056 448.332 67.2222L448.471 45.2779Z" fill="white"/>
<path d="M47.4998 0H0V47.4998H47.4998V0Z" fill="#F25022"/>
<path d="M99.9979 0H52.498V47.4998H99.9979V0Z" fill="#7FBA00"/>
<path d="M47.4998 52.5002H0V100H47.4998V52.5002Z" fill="#00A4EF"/>
<path d="M99.9979 52.5002H52.498V100H99.9979V52.5002Z" fill="#FFB900"/>
</svg>
