<svg width="65" height="24" viewBox="0 0 65 24" fill="none" xmlns="http://www.w3.org/2000/svg">
<path opacity="0.15" d="M54.9366 17.2504C55.2559 17.4228 55.5541 17.4686 55.8685 17.3184C56.0787 17.2182 56.1968 16.9835 56.2549 16.8461C56.5367 16.1789 56.6707 15.3771 56.7359 14.2867C57.509 15.045 58.4144 15.7122 59.4319 16.2196C59.609 16.308 59.8322 16.3689 60.0263 16.3689C60.3278 16.3689 60.6129 16.2546 60.8675 16.0511C62.6763 14.605 63.8088 12.0155 63.2129 9.3036C64.0552 6.96527 64.6557 3.84792 63.4385 1.27496C63.2649 0.908125 62.9673 0.487864 62.6295 0.28258C62.3021 0.083879 61.9318 -0.00682477 61.542 0.000399168L61.542 0.0003897C61.1523 0.00761353 60.743 0.112834 60.3376 0.306292C57.747 1.54201 55.0334 3.75708 54.2022 6.45321C54.2055 6.45813 54.2085 6.46335 54.2117 6.46827C54.1631 6.3943 54.1146 6.32025 54.0653 6.24839C53.9126 6.02614 53.6875 5.91128 53.5085 5.98023C53.32 6.0523 53.2493 6.31017 53.2839 6.59534L53.2971 6.69992C51.4917 5.01793 48.8762 3.61981 46.8272 3.01444C46.237 2.8404 45.5085 2.72782 45.1225 3.1578C44.8108 3.50522 44.9052 4.16045 45.2566 4.96083C46.4676 7.72145 48.7074 10.6564 50.9118 12.3716C51.8036 14.6556 53.1508 16.284 54.9366 17.2504Z" fill="black"/>
<path d="M52.7943 8.1506C52.7423 7.87547 52.6986 7.60191 52.6633 7.3337C50.858 5.65172 48.2424 4.25356 46.1933 3.64819C45.6031 3.47415 44.8748 3.36147 44.4888 3.79145C44.1771 4.13887 44.2713 4.79421 44.6227 5.59459C45.8336 8.35521 48.0737 11.2901 50.2778 13.0051V13.0044C49.7943 10.7161 50.6219 8.71349 52.7943 8.15053V8.1506Z" fill="#0197CA"/>
<path d="M54.3389 12.6053C53.6668 11.4479 53.0962 9.75787 52.7946 8.15063C50.6221 8.7136 49.7945 10.7162 50.2781 13.0045V13.0052C50.2788 13.0066 50.2788 13.006 50.2785 13.0052C50.5668 13.2297 50.8883 13.4488 51.1407 13.58C52.3095 14.1876 53.0822 14.0678 53.7487 13.6914C54.0146 13.5405 54.3518 13.1561 54.5225 12.9099C54.4593 12.8093 54.3982 12.7078 54.3389 12.6054L54.3389 12.6053Z" fill="#019C4E"/>
<path d="M53.7485 13.6912C53.0822 14.0677 52.3095 14.1875 51.1405 13.5799C50.8881 13.4487 50.5666 13.2296 50.2783 13.0051C50.2783 13.0058 50.2785 13.0062 50.2783 13.0055C51.17 15.2893 52.517 16.9177 54.3028 17.8841C54.6221 18.0566 54.9204 18.1023 55.2348 17.9522C55.445 17.852 55.563 17.6173 55.621 17.4798C55.9029 16.8126 56.037 16.0107 56.1019 14.9202C55.499 14.3037 54.9688 13.6267 54.5221 12.9098C54.3516 13.1559 54.0145 13.5404 53.7485 13.6912V13.6912Z" fill="#6BB552"/>
<path d="M62.5785 9.93738C62.3969 10.4417 62.2287 10.8078 61.8761 11.3976C61.3455 12.2852 60.3945 12.8138 59.3002 12.9341C58.3048 13.0432 56.9587 12.8584 55.874 12.4336C56.0405 13.2344 56.1206 14.0671 56.1018 14.9204C56.8748 15.6786 57.78 16.3458 58.7975 16.8532C58.9747 16.9416 59.1981 17.0025 59.3922 17.0025C59.6936 17.0025 59.9786 16.8882 60.2332 16.6847C62.0419 15.2386 63.1745 12.6491 62.5785 9.93738Z" fill="#F5C44B"/>
<path d="M53.9746 7.74425C54.7801 9.11965 55.4453 10.7081 55.7641 11.9595C55.8041 12.1161 55.8409 12.2743 55.8737 12.4336C56.9584 12.8585 58.3048 13.0432 59.2999 12.9341C60.3942 12.8139 61.3452 12.2853 61.8758 11.3976C62.2283 10.8079 62.3966 10.4417 62.5782 9.93743C60.8438 6.72497 56.4048 6.75018 53.9746 7.74425Z" fill="#E89E5D"/>
<path d="M62.8048 1.90851C62.6312 1.54168 62.3335 1.12152 61.9957 0.916236C61.3408 0.518834 60.5147 0.552974 59.7039 0.939889C57.1133 2.17561 54.3995 4.39066 53.5684 7.08679C53.7069 7.29855 53.8428 7.51833 53.9754 7.74392C56.4055 6.74986 60.8443 6.72464 62.5792 9.93711C63.4213 7.59888 64.022 4.48148 62.8048 1.90851Z" fill="#D9533A"/>
<path fill-rule="evenodd" clip-rule="evenodd" d="M52.6501 7.2291C52.6155 6.94394 52.686 6.68599 52.8746 6.61392C53.0535 6.54497 53.2787 6.65989 53.4313 6.88213C54.4791 8.40859 55.3768 10.4355 55.7646 11.9593C56.0049 12.9036 56.1243 13.897 56.102 14.9203C55.4145 14.217 54.8212 13.4354 54.3388 12.6053C53.5366 11.2232 52.8781 9.08179 52.6501 7.2291Z" fill="#3E5BA6"/>
<path d="M30.3852 14.3338C30.0481 13.5343 29.5043 12.9688 28.2688 12.9158C27.2042 12.8702 26.4884 13.182 26.4884 13.73C26.4884 14.4182 27.0316 14.5694 28.7633 14.9169C30.2119 15.2076 31.2012 15.5334 32.0038 16.0136C33.3607 16.8253 33.8898 18.007 33.8079 19.4688C33.626 22.7134 30.2645 24 27.1949 24C24.0429 24 21.7187 22.9691 20.7166 20.1456L24.6491 19.2753C25.1291 20.3669 25.8978 20.8894 27.2486 20.9227C28.3313 20.9494 29.1087 20.6235 29.1087 20.0501C29.1087 19.3854 28.4342 19.2202 26.6961 18.8048C24.2092 18.2103 21.7875 17.2685 21.8385 14.6308C21.9083 11.0248 25.3873 9.86368 28.597 9.97067C30.9631 10.0495 33.3138 11.0406 34.1823 13.4931L30.3852 14.3338ZM39.9733 12.5211C40.2935 11.9416 40.713 11.4156 41.2411 11.0323C42.0659 10.4338 43.1045 10.1345 44.2068 10.1345C46.385 10.1345 47.7085 11.5275 47.7923 13.4605C47.8105 13.8802 47.7991 14.4011 47.6845 15.0842L46.2804 23.458H41.3672L42.6386 15.8978C42.729 15.36 42.7694 15.0827 42.7694 14.8725C42.7694 14.1892 42.3746 13.7352 41.614 13.7352C40.59 13.7352 39.9596 14.4026 39.7222 15.8112L38.4336 23.458H33.6189L35.7964 10.5124H40.3115L39.9733 12.5211ZM4.74962 23.4582H0L2.17778 10.5127H6.58623L6.24506 12.5211C6.65295 11.874 7.027 11.449 7.43927 11.1299C8.3185 10.4492 9.31538 10.1345 10.365 10.1345C12.0184 10.1345 13.037 10.9498 13.515 12.5006C14.4591 10.8737 15.8153 10.1345 17.5727 10.1345C19.8544 10.1345 21.1062 11.4983 21.1542 13.7153C21.1633 14.1355 21.1243 14.5851 21.0495 15.0282L19.6271 23.4582H14.7467L16.038 15.7811C16.1125 15.3379 16.1348 15.0974 16.1165 14.8352C16.0654 14.1033 15.7256 13.7421 15.0691 13.7421C14.5704 13.7421 14.1108 13.9704 13.8028 14.4769C13.5706 14.8587 13.5374 15.0763 13.3771 16.027L12.1237 23.4584H7.37233L8.66919 15.7813C8.74404 15.3382 8.75493 15.0976 8.73657 14.8354C8.68532 14.1035 8.3124 13.7423 7.65616 13.7423C7.15723 13.7423 6.736 13.9708 6.42825 14.4771C6.19602 14.8591 6.16279 15.0766 6.00252 16.0272L4.74962 23.4582Z" fill="white"/>
</svg>
