<svg xmlns="http://www.w3.org/2000/svg" width="12.802" height="16" viewBox="0 0 12.802 16"><defs><style>.a{fill:#141414;}</style></defs><path class="a" d="M15.006,11.6a1.8,1.8,0,0,1,1.8,1.8v.46a3,3,0,0,1-.722,1.951C14.828,17.28,12.918,18,10.4,18s-4.426-.724-5.679-2.192A3,3,0,0,1,4,13.863V13.4a1.8,1.8,0,0,1,1.8-1.8h9.2Zm0,1.2H5.8a.6.6,0,0,0-.6.6v.462a1.8,1.8,0,0,0,.432,1.169c1,1.175,2.576,1.771,4.766,1.771s3.765-.6,4.77-1.771a1.8,1.8,0,0,0,.433-1.171V13.4a.6.6,0,0,0-.6-.6ZM10.4,2a4,4,0,1,1-4,4A4,4,0,0,1,10.4,2Zm0,1.2A2.8,2.8,0,1,0,13.2,6a2.8,2.8,0,0,0-2.8-2.8Z" transform="translate(-4.004 -2.004)"/></svg>