<svg xmlns="http://www.w3.org/2000/svg" width="16" height="11.071" viewBox="0 0 16 11.071"><defs><style>.a{fill:#141414;}</style></defs><path class="a" d="M12.252,5a5.534,5.534,0,1,1,.19,11.067l-.19,0H7.512A5.534,5.534,0,1,1,7.322,5l.189,0h4.741Zm0,1.186H7.512a4.348,4.348,0,1,0-.175,8.695l.175,0h4.741a4.348,4.348,0,1,0,.175-8.695l-.175,0ZM6.719,8.162a.593.593,0,0,1,.593.593V9.94H8.5a.593.593,0,1,1,0,1.186H7.312v1.188a.593.593,0,0,1-1.186,0V11.126H4.94a.593.593,0,0,1,0-1.186H6.126V8.755A.593.593,0,0,1,6.719,8.162Zm5.337,2.767a.988.988,0,1,1-.988.988A.988.988,0,0,1,12.056,10.93Zm1.581-2.767a.988.988,0,1,1-.988.988A.988.988,0,0,1,13.638,8.162Z" transform="translate(-1.882 -4.999)"/></svg>