<svg xmlns="http://www.w3.org/2000/svg" width="16" height="15.314" viewBox="0 0 16 15.314"><defs><style>.a{fill:#141414;}</style></defs><path class="a" d="M3.49,5.1A8.311,8.311,0,0,1,14.214,3.208,8.276,8.276,0,0,1,17.5,13.3c-1.328,3.638-4.828,5.078-7.35,3.248a3.773,3.773,0,0,1-1.488-2.94l-.085-.792L8.545,12.5c-.1-.75-.25-1.085-.566-1.262a1.268,1.268,0,0,0-1.28-.026l-.282.117-.144.063a3.1,3.1,0,0,1-2.039.334l-.16-.038-.132-.038C1.7,10.954,1.373,7.918,3.49,5.1Zm.79,5.39.1.03.108.024a1.86,1.86,0,0,0,1.153-.194l.483-.206a2.449,2.449,0,0,1,2.444.04,2.476,2.476,0,0,1,1.169,2.135l.043.368.044.427.038.339a2.7,2.7,0,0,0,1,2.122c1.826,1.324,4.441.248,5.513-2.688a7.078,7.078,0,0,0-2.8-8.658A7.112,7.112,0,0,0,4.452,5.824c-1.665,2.217-1.461,4.237-.173,4.667Zm9.008-1.6a1,1,0,1,1,1.222.685A1,1,0,0,1,13.287,8.891Zm.4,2.8a1,1,0,1,1,1.229.709,1,1,0,0,1-1.229-.709ZM11.7,6.481a1,1,0,1,1,1.229.709A1,1,0,0,1,11.7,6.481ZM11.678,13.7a1,1,0,1,1,1.222.685A1,1,0,0,1,11.678,13.7Zm-2.806-8a1,1,0,1,1,1.228.71A1,1,0,0,1,8.871,5.7Z" transform="translate(-2.07 -2.028)"/></svg>