<svg xmlns="http://www.w3.org/2000/svg" width="14.964" height="16" viewBox="0 0 14.964 16"><defs><style>.a{fill:#141414;}</style></defs><path class="a" d="M16.315,3.556l.04.129L16.8,5.229a.6.6,0,0,1-.336.717l-.077.028L7.769,8.445h8.964a.6.6,0,0,1,.6.522l.006.08v6.828A2.209,2.209,0,0,1,15.26,18.08l-.133,0H5.085A2.209,2.209,0,0,1,2.88,16.009l0-.135V9.132L2.457,7.669A2.209,2.209,0,0,1,3.844,4.978l.129-.042,9.651-2.767a2.209,2.209,0,0,1,2.691,1.387ZM16.131,9.65H4.081v6.225a1,1,0,0,0,.8.983l.1.016.1,0H15.127a1,1,0,0,0,1-.9l0-.1V9.65ZM5.5,5.751,4.3,6.1a1,1,0,0,0-.712,1.141l.023.1.276.965.237-.068L5.5,5.752ZM9.325,4.656l-2.183.626L5.766,7.764l2.183-.625L9.325,4.656Zm3.821-1.1-2.183.627L9.587,6.668l2.183-.625L13.147,3.56Zm1.485-.187-1.222,2.2,2.063-.592L15.2,4.017a1,1,0,0,0-.566-.645Z" transform="translate(-2.371 -2.083)"/></svg>