<svg xmlns="http://www.w3.org/2000/svg" width="15.996" height="16" viewBox="0 0 15.996 16"><defs><style>.a{fill:#141414;}</style></defs><path class="a" d="M4.859,2.059A.6.6,0,0,1,5.2,2.6a2.458,2.458,0,0,0,.562,1.512l.023.034A2.852,2.852,0,0,1,6.4,5.8a2.2,2.2,0,0,1-.963,1.82,1.95,1.95,0,0,1,.4.474A5.652,5.652,0,0,1,6.4,11a20.822,20.822,0,0,1-.484,4.327,8.261,8.261,0,0,1-.553,1.707,2.434,2.434,0,0,1-.408.616A1.06,1.06,0,0,1,4.2,18a1.056,1.056,0,0,1-.753-.349,2.4,2.4,0,0,1-.408-.616,8.22,8.22,0,0,1-.554-1.708A20.834,20.834,0,0,1,2,11a5.648,5.648,0,0,1,.558-2.908,1.951,1.951,0,0,1,.4-.474A2.2,2.2,0,0,1,2,5.8a3.164,3.164,0,0,1,.306-1.454A6.486,6.486,0,0,1,4.224,2.131a.6.6,0,0,1,.635-.072ZM3.2,5.8h0a1,1,0,0,0,2,0A1.766,1.766,0,0,0,4.766,4.78l-.01-.014A4.677,4.677,0,0,1,4.2,3.758a4.057,4.057,0,0,0-.809,1.1A1.98,1.98,0,0,0,3.2,5.8Zm.379,2.925A4.621,4.621,0,0,0,3.2,11a19.665,19.665,0,0,0,.453,4.06,7.117,7.117,0,0,0,.463,1.448c.03.062.058.113.083.156.026-.043.054-.094.083-.156a7.134,7.134,0,0,0,.463-1.448A19.6,19.6,0,0,0,5.2,11,4.621,4.621,0,0,0,4.82,8.723a.629.629,0,0,0-.26-.254A.817.817,0,0,0,4.2,8.4a.81.81,0,0,0-.361.067.629.629,0,0,0-.26.254ZM8.4,12.331a4.764,4.764,0,0,1-1.225-.381q.035-.68.02-1.362a3.578,3.578,0,0,0,1.205.52V8.8A1.2,1.2,0,0,1,9.6,7.6h3.2A3.6,3.6,0,0,0,7.011,4.74a4.538,4.538,0,0,0-.546-1.016l-.032-.048A4.8,4.8,0,0,1,14,7.6h2.8A1.2,1.2,0,0,1,18,8.8V16a1.2,1.2,0,0,1-1.2,1.2H9.6A1.2,1.2,0,0,1,8.4,16Zm1.2.05V16h7.2V8.8H13.845A4.8,4.8,0,0,1,9.6,12.381ZM12.592,8.8H9.6v2.378A3.6,3.6,0,0,0,12.592,8.8Z" transform="translate(-2 -2)"/></svg>