<svg xmlns="http://www.w3.org/2000/svg" width="12.566" height="16" viewBox="0 0 12.566 16"><defs><style>.a{fill:#141414;}</style></defs><path class="a" d="M7.659,4.333h.889V9.878a2,2,0,0,1-.243.955L5.119,16.7A1.556,1.556,0,0,0,6.486,19h9.456a1.556,1.556,0,0,0,1.367-2.3l-3.186-5.869a2,2,0,0,1-.242-.955V4.333h.889A.667.667,0,1,0,14.77,3H7.659a.667.667,0,1,0,0,1.333ZM9.881,9.878V4.333h2.667V9.878a3.339,3.339,0,0,0,.4,1.591l.711,1.308h-4.9l.711-1.309a3.333,3.333,0,0,0,.4-1.59ZM8.043,14.111h6.343l1.752,3.227a.222.222,0,0,1-.2.329H6.487a.222.222,0,0,1-.2-.329l1.751-3.227Z" transform="translate(-4.931 -3)"/></svg>