<svg xmlns="http://www.w3.org/2000/svg" width="16" height="14.408" viewBox="0 0 16 14.408"><path d="M3.6,3h.8A1.6,1.6,0,0,1,6,4.481L6,4.6V15.807a1.6,1.6,0,0,1-1.481,1.6l-.12,0H3.6A1.6,1.6,0,0,1,2,15.927l0-.12V4.6A1.6,1.6,0,0,1,3.481,3L3.6,3h0ZM8.4,3h.8a1.6,1.6,0,0,1,1.6,1.481l0,.12V15.807a1.6,1.6,0,0,1-1.481,1.6l-.12,0H8.4a1.6,1.6,0,0,1-1.6-1.481l0-.12V4.6A1.6,1.6,0,0,1,8.283,3L8.4,3h0Zm5.582,1.6A1.6,1.6,0,0,1,15.5,5.678l.038.126,2.413,9.4a1.6,1.6,0,0,1-1.037,1.915l-.115.034-.776.2a1.6,1.6,0,0,1-1.911-1.028l-.038-.124L11.659,6.8A1.6,1.6,0,0,1,12.7,4.885l.114-.034.775-.2a1.593,1.593,0,0,1,.4-.051ZM4.4,4.2H3.6a.4.4,0,0,0-.394.328L3.2,4.6V15.807a.4.4,0,0,0,.328.394l.072.006h.8a.4.4,0,0,0,.394-.328l.006-.072V4.6a.4.4,0,0,0-.328-.394Zm4.8,0H8.4a.4.4,0,0,0-.394.328L8,4.6V15.807a.4.4,0,0,0,.328.394l.072.006h.8a.4.4,0,0,0,.394-.328l.006-.072V4.6a.4.4,0,0,0-.328-.394Zm4.783,1.6-.05,0-.05.01-.775.2a.4.4,0,0,0-.3.408l.012.08,2.414,9.4a.4.4,0,0,0,.387.3l.05,0,.05-.01.776-.2a.4.4,0,0,0,.3-.415l-.012-.07L14.373,6.1a.4.4,0,0,0-.387-.3Z" transform="translate(-2 -3)"/></svg>