<svg xmlns="http://www.w3.org/2000/svg" width="17.872" height="13" viewBox="0 0 17.872 13"><defs><style>.a{fill:#141414;}</style></defs><path class="a" d="M3.492,4H16.044a1.83,1.83,0,0,1,1.831,1.827v9.345A1.827,1.827,0,0,1,16.048,17H3.454a1.828,1.828,0,0,1-1.828-1.827V9.317a1.113,1.113,0,0,0,.171.163A1.125,1.125,0,0,0,2.844,9.6V15.17a.609.609,0,0,0,.609.609H5.687V13.543a1.421,1.421,0,0,1,1.306-1.416l.116,0h5.277a1.422,1.422,0,0,1,1.417,1.3l0,.116v2.234h2.236a.609.609,0,0,0,.609-.609V5.827a.609.609,0,0,0-.609-.609H4.4l-.228-.073a.724.724,0,0,1-.458-.455ZM6.9,15.776H12.59l0-2.234a.2.2,0,0,0-.157-.2l-.046-.006H7.105a.2.2,0,0,0-.2.157l-.006.046v2.234Zm4.572-8.625a2.439,2.439,0,1,1-1.723-.713,2.436,2.436,0,0,1,1.723.713Zm-2.585.861a1.218,1.218,0,1,0,1.723,0A1.218,1.218,0,0,0,8.889,8.012Zm-6.97-.081.244.745a.295.295,0,0,0,.549.019l.007-.019.244-.744a1.534,1.534,0,0,1,.974-.973l.746-.244a.295.295,0,0,0,0-.556H4.668l-.747-.244a1.529,1.529,0,0,1-.973-.973L2.7,4.2a.295.295,0,0,0-.556,0L1.9,4.942,1.9,4.961a1.537,1.537,0,0,1-.953.955L.2,6.16a.3.3,0,0,0-.142.447A.293.293,0,0,0,.2,6.715l.747.244a1.544,1.544,0,0,1,.973.973ZM3.975,9.32l.435-.142a.908.908,0,0,0,.477-.384.928.928,0,0,0,.081-.184l.141-.435a.176.176,0,0,1,.1-.1.171.171,0,0,1,.164.019.18.18,0,0,1,.063.083l.141.435a.893.893,0,0,0,.569.567l.435.141h.008a.172.172,0,0,1,0,.324l-.435.141a.894.894,0,0,0-.569.568l-.141.434a.179.179,0,0,1-.063.081.172.172,0,0,1-.261-.081l-.141-.434a.894.894,0,0,0-.569-.57l-.435-.141a.173.173,0,0,1-.081-.26.162.162,0,0,1,.081-.063Z" transform="translate(-0.004 -4)"/></svg>