<svg xmlns="http://www.w3.org/2000/svg" width="16" height="13.604" viewBox="0 0 16 13.604"><defs><style>.a{fill:#141414;}</style></defs><path class="a" d="M13.191,3.8,11.989,5H4.6L4.485,5A1.4,1.4,0,0,0,3.2,6.4V8.192L5.288,6.88a1.8,1.8,0,0,1,2.406.455l.076.111A1.8,1.8,0,0,1,7.9,9.112l-.063.133-.966,1.829a.6.6,0,0,0,.746.84l.078-.037L9.1,11.082a.6.6,0,0,1,.661,1l-.068.046-1.412.8a1.8,1.8,0,0,1-2.53-2.294l.056-.116.966-1.829a.6.6,0,0,0-.771-.83L5.927,7.9,3.2,9.609V14a1.4,1.4,0,0,0,1.4,1.4H15.4A1.4,1.4,0,0,0,16.8,14V8.154l1.2-1.2V14a2.6,2.6,0,0,1-2.6,2.6H4.6A2.6,2.6,0,0,1,2,14V6.4A2.6,2.6,0,0,1,4.453,3.8l.147,0Zm4.149-.364.1.1.1.1a1.815,1.815,0,0,1-.1,2.464L14.019,9.518a1.8,1.8,0,0,1-.754.45l-1.862.56a.8.8,0,0,1-.992-1.012L11,7.68a1.81,1.81,0,0,1,.442-.722l3.432-3.426a1.816,1.816,0,0,1,2.464-.1Zm-1.616.944L12.292,7.807a.6.6,0,0,0-.147.24l-.358,1.112,1.133-.34a.6.6,0,0,0,.251-.15L16.6,5.25l.06-.069a.615.615,0,0,0-.93-.8Z" transform="translate(-2 -2.999)"/></svg>