<svg xmlns="http://www.w3.org/2000/svg" width="16" height="14.798" viewBox="0 0 16 14.798"><defs><style>.a{fill:#141414;}</style></defs><path class="a" d="M11.54,2.5a1.8,1.8,0,0,1,1.552.888L13.743,4.5H15.4A2.6,2.6,0,0,1,18,7.1v7.6a2.6,2.6,0,0,1-2.6,2.6H4.6A2.6,2.6,0,0,1,2,14.7V7.1A2.6,2.6,0,0,1,4.6,4.5H6.264l.7-1.139A1.8,1.8,0,0,1,8.5,2.5H11.54Zm0,1.2H8.5a.6.6,0,0,0-.459.214l-.052.072L7.112,5.413A.6.6,0,0,1,6.6,5.7h-2A1.4,1.4,0,0,0,3.2,7.1v7.6a1.4,1.4,0,0,0,1.4,1.4H15.4a1.4,1.4,0,0,0,1.4-1.4V7.1a1.4,1.4,0,0,0-1.4-1.4h-2a.6.6,0,0,1-.518-.3L12.057,4a.6.6,0,0,0-.517-.3ZM10,6.9a3.6,3.6,0,1,1-3.6,3.6A3.6,3.6,0,0,1,10,6.9Zm0,1.2a2.4,2.4,0,1,0,2.4,2.4A2.4,2.4,0,0,0,10,8.1Z" transform="translate(-2 -2.503)"/></svg>