<svg xmlns="http://www.w3.org/2000/svg" width="12.8" height="16" viewBox="0 0 12.8 16"><defs><style>.a{fill:#141414;}</style></defs><path class="a" d="M6.4,6A1.6,1.6,0,0,1,8,4.4h4.8A1.6,1.6,0,0,1,14.4,6v.8a1.6,1.6,0,0,1-1.6,1.6H8A1.6,1.6,0,0,1,6.4,6.8ZM8,5.6a.4.4,0,0,0-.4.4v.8a.4.4,0,0,0,.4.4h4.8a.4.4,0,0,0,.4-.4V6a.4.4,0,0,0-.4-.4ZM7.4,12a1,1,0,1,0-1-1A1,1,0,0,0,7.4,12Zm1,2.2a1,1,0,1,1-1-1A1,1,0,0,1,8.4,14.2Zm5-2.2a1,1,0,1,0-1-1A1,1,0,0,0,13.4,12Zm1,2.2a1,1,0,1,1-1-1A1,1,0,0,1,14.4,14.2Zm-4-2.2a1,1,0,1,0-1-1A1,1,0,0,0,10.4,12Zm1,2.2a1,1,0,1,1-1-1A1,1,0,0,1,11.4,14.2ZM6.6,2A2.6,2.6,0,0,0,4,4.6V15.4A2.6,2.6,0,0,0,6.6,18h7.6a2.6,2.6,0,0,0,2.6-2.6V4.6A2.6,2.6,0,0,0,14.2,2ZM5.2,4.6A1.4,1.4,0,0,1,6.6,3.2h7.6a1.4,1.4,0,0,1,1.4,1.4V15.4a1.4,1.4,0,0,1-1.4,1.4H6.6a1.4,1.4,0,0,1-1.4-1.4Z" transform="translate(-4 -2)"/></svg>