<svg xmlns="http://www.w3.org/2000/svg" width="11.199" height="16" viewBox="0 0 11.199 16"><defs><style>.a{fill:#141414;}</style></defs><g transform="translate(-5 -1.998)"><path class="a" d="M11.5,5.613l.73,1.482,1.635.236a.2.2,0,0,1,.114.348L12.8,8.831l.28,1.629a.2.2,0,0,1-.3.215l-1.462-.77-1.461.77a.2.2,0,0,1-.3-.215l.28-1.628L8.657,7.68a.2.2,0,0,1,.114-.349L10.406,7.1l.73-1.482a.2.2,0,0,1,.366,0Z" transform="translate(-0.719 -0.7)"/><path class="a" d="M16.2,7.6a5.6,5.6,0,1,0-9.6,3.918V17.4l.006.084a.6.6,0,0,0,.94.406L10.6,15.739l3.055,2.15.071.043A.6.6,0,0,0,14.6,17.4l0-5.881A5.581,5.581,0,0,0,16.2,7.6ZM13.4,12.45v3.792l-2.456-1.728-.08-.048a.6.6,0,0,0-.61.048L7.8,16.242V12.45a5.607,5.607,0,0,0,5.6,0ZM6.2,7.6A4.4,4.4,0,1,1,10.6,12,4.4,4.4,0,0,1,6.2,7.6Z" transform="translate(0 0)"/></g></svg>