<svg xmlns="http://www.w3.org/2000/svg" xmlns:xlink="http://www.w3.org/1999/xlink" width="138.984" height="126" viewBox="0 0 138.984 126"><defs><style>.a{fill:#49b6f5;}.b{fill:url(#c);}.c{fill:url(#f);}.d{fill:#ab1995;}.e{fill:url(#i);}.f{fill:#fff;}.g{fill:url(#n);}.h{filter:url(#l);}.i{filter:url(#j);}.j{filter:url(#g);}.k{filter:url(#d);}.l{filter:url(#a);}</style><filter id="a" x="30.295" y="0" width="108.689" height="126" filterUnits="userSpaceOnUse"><feOffset input="SourceAlpha"/><feGaussianBlur stdDeviation="1" result="b"/><feFlood flood-color="#93bbfe" flood-opacity="0.302"/><feComposite operator="in" in2="b"/><feComposite in="SourceGraphic"/></filter><linearGradient id="c" x1="0.5" x2="0.5" y2="1" gradientUnits="objectBoundingBox"><stop offset="0" stop-color="#ffd200"/><stop offset="1" stop-color="#f18f09"/></linearGradient><filter id="d" x="99.541" y="13.803" width="29.607" height="96.492" filterUnits="userSpaceOnUse"><feOffset dy="2" input="SourceAlpha"/><feGaussianBlur stdDeviation="1" result="e"/><feFlood flood-color="#93bbfe" flood-opacity="0.302"/><feComposite operator="in" in2="e"/><feComposite in="SourceGraphic"/></filter><linearGradient id="f" x1="0.5" x2="0.5" y2="1" gradientUnits="objectBoundingBox"><stop offset="0" stop-color="#54b50e"/><stop offset="1" stop-color="#10597d"/></linearGradient><filter id="g" x="99.541" y="80.688" width="29.607" height="29.607" filterUnits="userSpaceOnUse"><feOffset dy="2" input="SourceAlpha"/><feGaussianBlur stdDeviation="1" result="h"/><feFlood flood-opacity="0.051"/><feComposite operator="in" in2="h"/><feComposite in="SourceGraphic"/></filter><linearGradient id="i" x1="0.039" y1="0.034" x2="0.97" y2="0.97" gradientUnits="objectBoundingBox"><stop offset="0" stop-color="#4fc4fe"/><stop offset="1" stop-color="#036dbc"/></linearGradient><filter id="j" x="0" y="24" width="75.246" height="75.639" filterUnits="userSpaceOnUse"><feOffset input="SourceAlpha"/><feGaussianBlur stdDeviation="1" result="k"/><feFlood flood-color="#93bbfe" flood-opacity="0.302"/><feComposite operator="in" in2="k"/><feComposite in="SourceGraphic"/></filter><filter id="l" x="11.41" y="28.921" width="52.764" height="65.206" filterUnits="userSpaceOnUse"><feOffset dy="1" input="SourceAlpha"/><feGaussianBlur stdDeviation="5" result="m"/><feFlood flood-opacity="0.161"/><feComposite operator="in" in2="m"/><feComposite in="SourceGraphic"/></filter><linearGradient id="n" x1="0.5" x2="0.5" y2="1" gradientUnits="objectBoundingBox"><stop offset="0" stop-color="#e15113"/><stop offset="1" stop-color="#c03307"/></linearGradient></defs><g transform="translate(-893 -456)"><g class="l" transform="matrix(1, 0, 0, 1, 893, 456)"><path class="a" d="M14.164,0H88.525a14.164,14.164,0,0,1,14.164,14.164v91.672A14.164,14.164,0,0,1,88.525,120,88.525,88.525,0,0,1,0,31.475V14.164A14.164,14.164,0,0,1,14.164,0Z" transform="translate(33.3 3)"/></g><g class="k" transform="matrix(1, 0, 0, 1, 893, 456)"><path class="b" d="M11.8,0a11.8,11.8,0,0,1,11.8,11.8V78.689A11.8,11.8,0,0,1,0,78.689V11.8A11.8,11.8,0,0,1,11.8,0Z" transform="translate(102.54 14.8)"/></g><path class="c" d="M11.8,0a11.8,11.8,0,0,1,11.8,11.8V45.246A11.8,11.8,0,0,1,0,45.246V11.8A11.8,11.8,0,0,1,11.8,0Z" transform="translate(995.541 504.246)"/><g class="j" transform="matrix(1, 0, 0, 1, 893, 456)"><path class="d" d="M11.8,0A11.8,11.8,0,1,1,0,11.8,11.8,11.8,0,0,1,11.8,0Z" transform="translate(102.54 81.69)"/></g><g class="i" transform="matrix(1, 0, 0, 1, 893, 456)"><path class="e" d="M7.869,0H61.377a7.869,7.869,0,0,1,7.869,7.869v53.9a7.869,7.869,0,0,1-7.869,7.869H7.869A7.869,7.869,0,0,1,0,61.77V7.869A7.869,7.869,0,0,1,7.869,0Z" transform="translate(3 27)"/></g><g class="h" transform="matrix(1, 0, 0, 1, 893, 456)"><path class="f" d="M7.441-54.277H30.205v-6.075h-15.4V-89.483H7.441Z" transform="translate(18.97 132.4)"/></g><path class="g" d="M11.8,0A11.8,11.8,0,1,1,0,11.8,11.8,11.8,0,0,1,11.8,0Z" transform="translate(995.541 537.688)"/></g></svg>