<svg xmlns="http://www.w3.org/2000/svg" xmlns:xlink="http://www.w3.org/1999/xlink" width="110.82" height="100" viewBox="0 0 110.82 100"><defs><style>.a{fill:#49b6f5;}.b{fill:url(#a);}.c{fill:url(#d);}.d{fill:#ab1995;}.e{fill:url(#g);}.f{fill:#fff;}.g{fill:url(#j);}.h{filter:url(#h);}.i{filter:url(#e);}.j{filter:url(#b);}</style><linearGradient id="a" x1="0.5" x2="0.5" y2="1" gradientUnits="objectBoundingBox"><stop offset="0" stop-color="#ffd200"/><stop offset="1" stop-color="#f18f09"/></linearGradient><filter id="b" x="79.951" y="8.836" width="25.672" height="81.41" filterUnits="userSpaceOnUse"><feOffset dy="2" input="SourceAlpha"/><feGaussianBlur stdDeviation="1" result="c"/><feFlood flood-color="#02101a" flood-opacity="0.078"/><feComposite operator="in" in2="c"/><feComposite in="SourceGraphic"/></filter><linearGradient id="d" x1="0.5" x2="0.5" y2="1" gradientUnits="objectBoundingBox"><stop offset="0" stop-color="#54b50e"/><stop offset="1" stop-color="#10597d"/></linearGradient><filter id="e" x="79.951" y="64.574" width="25.672" height="25.672" filterUnits="userSpaceOnUse"><feOffset dy="2" input="SourceAlpha"/><feGaussianBlur stdDeviation="1" result="f"/><feFlood flood-opacity="0.051"/><feComposite operator="in" in2="f"/><feComposite in="SourceGraphic"/></filter><linearGradient id="g" x1="0.039" y1="0.034" x2="0.97" y2="0.97" gradientUnits="objectBoundingBox"><stop offset="0" stop-color="#4fc4fe"/><stop offset="1" stop-color="#036dbc"/></linearGradient><filter id="h" x="4.508" y="19.268" width="48.97" height="59.339" filterUnits="userSpaceOnUse"><feOffset dy="1" input="SourceAlpha"/><feGaussianBlur stdDeviation="5" result="i"/><feFlood flood-opacity="0.161"/><feComposite operator="in" in2="i"/><feComposite in="SourceGraphic"/></filter><linearGradient id="j" x1="0.5" x2="0.5" y2="1" gradientUnits="objectBoundingBox"><stop offset="0" stop-color="#e15113"/><stop offset="1" stop-color="#c03307"/></linearGradient></defs><g transform="translate(-896 -459)"><path class="a" d="M11.8,0H73.77a11.8,11.8,0,0,1,11.8,11.8V88.2A11.8,11.8,0,0,1,73.77,100,73.771,73.771,0,0,1,0,26.23V11.8A11.8,11.8,0,0,1,11.8,0Z" transform="translate(921.246 459)"/><g class="j" transform="matrix(1, 0, 0, 1, 896, 459)"><path class="b" d="M9.836,0a9.836,9.836,0,0,1,9.836,9.836V65.574A9.836,9.836,0,1,1,0,65.574V9.836A9.836,9.836,0,0,1,9.836,0Z" transform="translate(82.95 9.84)"/></g><path class="c" d="M9.836,0a9.836,9.836,0,0,1,9.836,9.836V37.7A9.836,9.836,0,0,1,0,37.7V9.836A9.836,9.836,0,0,1,9.836,0Z" transform="translate(978.951 496.705)"/><g class="i" transform="matrix(1, 0, 0, 1, 896, 459)"><path class="d" d="M9.836,0A9.836,9.836,0,1,1,0,9.836,9.836,9.836,0,0,1,9.836,0Z" transform="translate(82.95 65.57)"/></g><path class="e" d="M6.557,0h44.59A6.557,6.557,0,0,1,57.7,6.557V51.475a6.557,6.557,0,0,1-6.557,6.557H6.557A6.557,6.557,0,0,1,0,51.475V6.557A6.557,6.557,0,0,1,6.557,0Z" transform="translate(896 479)"/><g class="h" transform="matrix(1, 0, 0, 1, 896, 459)"><path class="f" d="M7.441-60.144h18.97v-5.063H13.581V-89.483H7.441Z" transform="translate(12.07 122.75)"/></g><path class="g" d="M9.836,0A9.836,9.836,0,1,1,0,9.836,9.836,9.836,0,0,1,9.836,0Z" transform="translate(978.951 524.574)"/></g></svg>