<svg xmlns="http://www.w3.org/2000/svg" xmlns:xlink="http://www.w3.org/1999/xlink" width="166.32" height="100.006" viewBox="0 0 166.32 100.006"><defs><style>.a{fill:url(#a);}</style><linearGradient id="a" x1="0.5" x2="0.5" y2="1" gradientUnits="objectBoundingBox"><stop offset="0" stop-color="#f9a706"/><stop offset="1" stop-color="#cc8905"/></linearGradient></defs><path class="a" d="M52.195,36.114c26.4,0,46.944-21.066,46.944-49.675A49.84,49.84,0,0,0,84.773-48.932,49.84,49.84,0,0,0,49.594-63.761c-26.788,0-47.074,21.847-47.074,50.2C2.52,15.048,24.5,36.114,52.195,36.114Zm.13-9.1c-20.286,0-29.649-23.667-29.649-48.635,0-19.636,8.192-33.03,26.4-33.03,18.466,0,29.909,21.326,29.909,45.514,0,21.584-5.464,36.148-26.66,36.148ZM137.24-27.475c-15.085,0-31.6,10.923-31.6,31.86s16.515,31.86,31.6,31.86,31.6-10.923,31.6-31.86S152.325-27.475,137.24-27.475Zm1.3,56.567c-10.273,0-13.784-14.564-13.784-28.739,0-12.484,3.381-20.676,11.183-20.676,10.273,0,13.784,14.564,13.784,28.739,0,12.484-3.38,20.676-11.182,20.676Z" transform="translate(-2.52 63.761)"/></svg>