<svg xmlns="http://www.w3.org/2000/svg" xmlns:xlink="http://www.w3.org/1999/xlink" width="205.584" height="126" viewBox="0 0 205.584 126"><defs><style>.a{fill:#f9a706;}.b{filter:url(#a);}</style><filter id="a" x="0" y="0" width="205.584" height="126" filterUnits="userSpaceOnUse"><feOffset input="SourceAlpha"/><feGaussianBlur stdDeviation="1" result="b"/><feFlood flood-color="#ffce54" flood-opacity="0.302"/><feComposite operator="in" in2="b"/><feComposite in="SourceGraphic"/></filter></defs><g class="b" transform="matrix(1, 0, 0, 1, 0, 0)"><path class="a" d="M62.13,56.088c31.677,0,56.333-25.28,56.333-59.61,0-34.018-27.308-60.234-59.454-60.234S2.52-37.54,2.52-3.522C2.52,30.808,28.892,56.088,62.13,56.088Zm.156-10.923c-24.343,0-35.579-28.4-35.579-58.362,0-23.563,9.831-39.636,31.678-39.636,22.159,0,35.891,25.592,35.891,54.616C94.276,27.687,87.722,45.165,62.286,45.165Zm101.9-65.384c-18.1,0-37.919,13.108-37.919,38.231s19.818,38.231,37.919,38.231S202.1,43.136,202.1,18.013,182.286-20.219,164.184-20.219Zm1.56,67.88c-12.328,0-16.541-17.477-16.541-34.486,0-14.98,4.057-24.811,13.42-24.811,12.328,0,16.541,17.477,16.541,34.486C179.165,37.83,175.108,47.661,165.745,47.661Z" transform="translate(0.48 66.76)"/></g></svg>