<svg xmlns="http://www.w3.org/2000/svg" width="166.32" height="100" viewBox="0 0 166.32 100"><defs><style>.a{fill:#f9a706;}</style></defs><path class="a" d="M52.195,36.114c26.4,0,46.944-21.066,46.944-49.675a49.84,49.84,0,0,0-49.545-50.2c-26.788,0-47.074,21.847-47.074,50.2C2.52,15.048,24.5,36.114,52.195,36.114Zm.13-9.1c-20.286,0-29.649-23.667-29.649-48.635,0-19.636,8.192-33.03,26.4-33.03,18.466,0,29.909,21.326,29.909,45.514C78.983,12.447,73.521,27.011,52.325,27.011ZM137.24-27.475c-15.085,0-31.6,10.923-31.6,31.86s16.515,31.86,31.6,31.86,31.6-10.923,31.6-31.86S152.325-27.475,137.24-27.475Zm1.3,56.567c-10.273,0-13.784-14.564-13.784-28.739,0-12.484,3.381-20.676,11.183-20.676,10.273,0,13.784,14.564,13.784,28.739C149.724,20.9,146.343,29.092,138.541,29.092Z" transform="translate(-2.52 63.756)"/></svg>