<svg xmlns="http://www.w3.org/2000/svg" xmlns:xlink="http://www.w3.org/1999/xlink" width="111.729" height="126" viewBox="0 0 111.729 126"><defs><style>.a{fill:#95bf47;}.b{fill:#5e8e3e;}.c{fill:#fff;}.d{filter:url(#c);}.e{filter:url(#a);}</style><filter id="a" x="0" y="0" width="111.519" height="126" filterUnits="userSpaceOnUse"><feOffset input="SourceAlpha"/><feGaussianBlur stdDeviation="1" result="b"/><feFlood flood-color="#89bc9f" flood-opacity="0.302"/><feComposite operator="in" in2="b"/><feComposite in="SourceGraphic"/></filter><filter id="c" x="68.612" y="14.13" width="43.118" height="111.87" filterUnits="userSpaceOnUse"><feOffset input="SourceAlpha"/><feGaussianBlur stdDeviation="1" result="d"/><feFlood flood-color="#89bc9f" flood-opacity="0.302"/><feComposite operator="in" in2="d"/><feComposite in="SourceGraphic"/></filter></defs><g transform="translate(3 3)"><g class="e" transform="matrix(1, 0, 0, 1, -3, -3)"><path class="a" d="M92.513,23.339a1.045,1.045,0,0,0-1.054-.914c-.422,0-9.631-.7-9.631-.7s-6.4-6.4-7.17-7.03a2.95,2.95,0,0,0-2.6-.351c-.07,0-1.406.422-3.585,1.125C66.292,9.209,62.566,3.515,55.888,3.515h-.633A8.172,8.172,0,0,0,49.069,0C33.6,0,26.151,19.332,23.831,29.174c-6.046,1.9-10.334,3.163-10.826,3.374C9.631,33.6,9.561,33.673,9.139,36.837,8.787,39.227,0,107.206,0,107.206L68.4,120l37.118-8.014c.07-.141-12.935-88.014-13.005-88.647ZM64.675,16.45c-1.687.492-3.726,1.125-5.764,1.828V17.012A27,27,0,0,0,57.5,7.663C61.019,8.084,63.2,11.951,64.675,16.45ZM53.216,8.436a29.447,29.447,0,0,1,1.547,10.4v.7c-3.8,1.2-7.8,2.39-11.951,3.726,2.32-8.858,6.749-13.216,10.4-14.833Zm-4.5-4.359a3.359,3.359,0,0,1,1.968.7C45.694,7.1,40.422,12.935,38.243,24.745c-3.3,1.054-6.467,1.968-9.49,2.953,2.531-9,8.858-23.62,19.965-23.62Z" transform="translate(3 3)"/></g><g class="d" transform="matrix(1, 0, 0, 1, -3, -3)"><path class="b" d="M120.447,28.255c-.422,0-9.631-.7-9.631-.7s-6.4-6.4-7.17-7.03a1.361,1.361,0,0,0-.914-.422L97.6,125.97l37.118-8.014s-13.005-88.014-13.076-88.647A1.9,1.9,0,0,0,120.447,28.255Z" transform="translate(-25.99 -2.97)"/></g><path class="c" d="M62.778,60.157l-4.5,13.568a21.145,21.145,0,0,0-8.928-2.179c-7.241,0-7.592,4.569-7.592,5.694,0,6.186,16.169,8.576,16.169,23.128,0,11.459-7.241,18.84-17.012,18.84-11.81,0-17.715-7.311-17.715-7.311l3.163-10.4s6.186,5.343,11.388,5.343A4.618,4.618,0,0,0,42.6,102.2c0-8.084-13.216-8.436-13.216-21.793,0-11.178,8.014-22,24.253-22C59.685,58.329,62.778,60.157,62.778,60.157Z" transform="translate(-6.891 -17.345)"/></g></svg>