<svg xmlns="http://www.w3.org/2000/svg" width="88.107" height="100" viewBox="0 0 88.107 100"><defs><style>.a{fill:#95bf47;}.b{fill:#5e8e3e;}.c{fill:#fff;}</style></defs><path class="a" d="M77.094,19.449a.871.871,0,0,0-.879-.762c-.351,0-8.026-.586-8.026-.586s-5.331-5.331-5.975-5.858a2.459,2.459,0,0,0-2.168-.293c-.059,0-1.172.351-2.988.937-1.816-5.214-4.921-9.959-10.486-9.959h-.527A6.81,6.81,0,0,0,40.89,0C28,0,21.793,16.11,19.859,24.312c-5.038,1.582-8.612,2.636-9.022,2.812C8.026,28,7.967,28.061,7.616,30.7,7.323,32.689,0,89.338,0,89.338L57,100l30.931-6.678c.059-.117-10.779-73.345-10.838-73.872ZM53.9,13.708c-1.406.41-3.1.937-4.8,1.523V14.177A22.5,22.5,0,0,0,47.92,6.385c2.929.351,4.745,3.574,5.975,7.323ZM44.347,7.03a24.539,24.539,0,0,1,1.289,8.67v.586c-3.163,1-6.5,1.992-9.959,3.1C37.61,12.009,41.3,8.377,44.347,7.03ZM40.6,3.4a2.8,2.8,0,0,1,1.64.586c-4.159,1.933-8.553,6.8-10.369,16.637-2.753.879-5.39,1.64-7.909,2.46C26.069,15.583,31.342,3.4,40.6,3.4Z"/><path class="b" d="M116.639,26.9c-.351,0-8.026-.586-8.026-.586s-5.331-5.331-5.975-5.858a1.134,1.134,0,0,0-.762-.351L97.6,108.325l30.931-6.678s-10.838-73.345-10.9-73.872A1.585,1.585,0,0,0,116.639,26.9Z" transform="translate(-40.424 -8.325)"/><path class="c" d="M56.182,59.863,52.433,71.17a17.621,17.621,0,0,0-7.44-1.816c-6.034,0-6.327,3.808-6.327,4.745,0,5.155,13.474,7.147,13.474,19.274,0,9.549-6.034,15.7-14.177,15.7-9.842,0-14.763-6.093-14.763-6.093l2.636-8.67s5.155,4.452,9.49,4.452A3.849,3.849,0,0,0,39.369,94.9c0-6.737-11.013-7.03-11.013-18.161,0-9.315,6.678-18.336,20.211-18.336C53.6,58.34,56.182,59.863,56.182,59.863Z" transform="translate(-9.609 -24.187)"/></svg>