<svg xmlns="http://www.w3.org/2000/svg" xmlns:xlink="http://www.w3.org/1999/xlink" width="115.137" height="126" viewBox="0 0 115.137 126"><defs><style>.a{fill:#d21242;}.b{filter:url(#a);}</style><filter id="a" x="0" y="0" width="115.137" height="126" filterUnits="userSpaceOnUse"><feOffset input="SourceAlpha"/><feGaussianBlur stdDeviation="1" result="b"/><feFlood flood-color="#f17b71" flood-opacity="0.302"/><feComposite operator="in" in2="b"/><feComposite in="SourceGraphic"/></filter></defs><g transform="translate(2.98 3)"><path class="a" d="M521.28,383.26" transform="translate(-510.334 -299.709)"/><g class="b" transform="matrix(1, 0, 0, 1, -2.98, -3)"><path class="a" d="M565.358,202.448l30.189-20.623-8.789-5.07,8.215-16.215-17.781,3.81c-.906-3.324-1.77-6.492-2.67-9.779L556.4,168.2l7.354-34.97-12.411,5.129-10.38-21.76-10.374,21.745-12.417-5.135c2.453,11.678,4.872,23.186,7.351,34.97l-18.116-13.63c-.915,3.356-1.783,6.533-2.666,9.776l-17.787-3.8c2.82,5.571,5.515,10.879,8.228,16.236l-8.773,5.06,30.179,20.614-6.5,9.111c9.174,0,18.21.022,27.369.028l-.031.034h.038V236.6h7.009V211.606h.031l-.031-.034h27.391C569.585,208.376,567.5,205.44,565.358,202.448Z" transform="translate(-483.41 -113.6)"/></g></g></svg>