<svg width="24" height="24" viewBox="0 0 24 24" fill="none" xmlns="http://www.w3.org/2000/svg">
<path d="M15.353 4.11763C14.1185 4.11763 13.1178 5.11839 13.1178 6.35289C13.1178 6.50687 13.1333 6.65666 13.1626 6.80098C13.1964 6.96722 13.1528 7.13981 13.0442 7.27011C12.9355 7.4004 12.7736 7.47429 12.604 7.47096C12.589 7.47066 12.574 7.47052 12.559 7.47052C12.1898 7.47052 11.8415 7.56003 11.5346 7.71853C11.3666 7.38057 11.1571 7.06689 10.9128 6.78415C11.2444 6.59691 11.611 6.46449 12.0005 6.39919L12.0002 6.35289C12.0002 4.50114 13.5013 3 15.353 3C17.2048 3 18.7059 4.50114 18.7059 6.35289L18.7056 6.39919C20.2915 6.6651 21.5 8.04431 21.5 9.70578C21.5 11.5575 19.9989 13.0587 18.1471 13.0587C17.9023 13.0587 17.6635 13.0324 17.4333 12.9824L17.6786 13.9951C17.9768 15.2261 17.0443 16.4115 15.7778 16.4115H14.9258C13.6586 16.4115 12.7259 15.2248 13.0253 13.9935L13.5287 11.9233C13.6017 11.6234 13.9039 11.4394 14.2038 11.5123C14.5037 11.5852 14.6876 11.8875 14.6147 12.1873L14.1113 14.2576C13.983 14.7853 14.3827 15.2939 14.9258 15.2939H15.7778C16.3206 15.2939 16.7202 14.7858 16.5924 14.2583L16.0905 12.1864C16.0367 11.9642 16.1236 11.7316 16.31 11.5992C16.4964 11.4668 16.7446 11.4613 16.9367 11.5854C17.2852 11.8104 17.7001 11.941 18.1471 11.941C19.3816 11.941 20.3824 10.9403 20.3824 9.70578C20.3824 8.47128 19.3816 7.47052 18.1471 7.47052C18.1321 7.47052 18.1171 7.47067 18.1021 7.47096C17.9325 7.4743 17.7705 7.4004 17.6619 7.27011C17.5533 7.13981 17.5097 6.96722 17.5435 6.80098C17.5728 6.65667 17.5883 6.50687 17.5883 6.35289C17.5883 5.11839 16.5875 4.11763 15.353 4.11763ZM5.29407 9.70578C5.29407 8.47128 6.29483 7.47052 7.52933 7.47052C8.76383 7.47052 9.76459 8.47128 9.76459 9.70578C9.76459 10.2096 9.59856 10.6731 9.31798 11.0466C9.19082 11.2159 9.17026 11.4425 9.26489 11.6319C9.35951 11.8214 9.55306 11.941 9.76479 11.941H10.3234C10.632 11.941 10.8822 12.1912 10.8822 12.4998C10.8822 12.8085 10.632 13.0587 10.3234 13.0587H9.08612C8.92609 13.0587 8.77374 13.1273 8.66768 13.2471C8.56161 13.3669 8.51201 13.5265 8.53144 13.6853C8.86908 16.4457 10.3296 18.0296 11.148 18.7141C11.3426 18.8768 11.441 19.0819 11.441 19.2601C11.441 19.5386 11.2153 19.7644 10.9368 19.7644H4.1219C3.8434 19.7644 3.61763 19.5386 3.61763 19.2601C3.61763 19.0819 3.7161 18.8768 3.91066 18.7141C4.72904 18.0296 6.18958 16.4457 6.52723 13.6853C6.54666 13.5265 6.49705 13.3669 6.39099 13.2471C6.28492 13.1273 6.13257 13.0587 5.97255 13.0587H4.73526C4.42663 13.0587 4.17644 12.8085 4.17644 12.4998C4.17644 12.1912 4.42663 11.941 4.73526 11.941H5.29387C5.5056 11.941 5.69915 11.8214 5.79378 11.6319C5.8884 11.4425 5.86784 11.2159 5.74068 11.0466C5.46011 10.6731 5.29407 10.2096 5.29407 9.70578ZM7.52933 6.35289C5.67758 6.35289 4.17644 7.85403 4.17644 9.70578C4.17644 10.1114 4.24866 10.5006 4.38091 10.8609C3.62522 11.0235 3.05881 11.6955 3.05881 12.4998C3.05881 13.4257 3.80938 14.1763 4.73526 14.1763H5.31541C4.90106 16.1857 3.8048 17.3456 3.19362 17.8568C2.80585 18.1812 2.5 18.6792 2.5 19.2601C2.5 20.1559 3.22615 20.882 4.1219 20.882H10.9368C11.8325 20.882 12.5587 20.1559 12.5587 19.2601C12.5587 18.6792 12.2528 18.1812 11.865 17.8568C11.2539 17.3456 10.1576 16.1857 9.74325 14.1763H10.3234C11.2493 14.1763 11.9998 13.4257 11.9998 12.4998C11.9998 11.6955 11.4334 11.0235 10.6778 10.8609C10.81 10.5006 10.8822 10.1114 10.8822 9.70578C10.8822 7.85403 9.38108 6.35289 7.52933 6.35289Z" fill="white"/>
</svg>
