<svg width="64" height="43" viewBox="0 0 64 43" fill="none" xmlns="http://www.w3.org/2000/svg">
<path d="M45.8682 0C50.5574 0.000173169 55.0239 2.71793 58.4424 7.81445C62.1836 13.3963 64 20.4271 64 27.6826C64 31.9957 63.1497 35.1652 61.7031 37.6689C60.3055 40.0903 57.5812 42.5096 52.999 42.5098L52.4678 42.502C49.8331 42.4243 47.4513 41.7261 44.835 39.2578C42.6895 37.237 40.1815 33.647 38.252 30.4199L32.5117 20.832C32.3484 20.5591 32.1851 20.2903 32.0234 20.0254C31.8603 20.3141 31.6947 20.6055 31.5283 20.9004L29.5117 24.4727C25.4613 31.6544 24.4352 33.2908 22.4102 35.9902C18.8603 40.7175 15.8284 42.5098 11.8379 42.5098C7.1041 42.5097 4.11075 40.4593 2.25684 37.3701C0.743538 34.853 2.25739e-05 31.5505 0 27.7871L0.00585938 27.1445C0.119418 20.499 1.98983 13.638 5.4502 8.30176C8.61947 3.41651 13.1937 0 18.4395 0L19.0088 0.0107422C21.8553 0.118977 24.6948 1.06053 27.6514 3.47461C29.3137 4.83138 31.0268 6.61247 32.8711 8.94727C34.37 6.92224 35.9871 5.00741 37.7266 3.49023C40.2994 1.2468 43.075 0 45.8682 0ZM18.3281 6.9502C15.5973 6.9502 13.2777 8.8667 11.3369 11.7979C8.59274 15.9397 6.91309 22.1096 6.91309 28.0342L6.91895 28.4854C6.98042 30.7093 7.49312 32.4251 8.15039 33.4893C9.06953 34.9757 10.4403 35.6054 11.8379 35.6055C13.6406 35.6055 15.2897 35.1581 18.4678 30.7627C21.0139 27.2395 24.0146 22.2937 26.0332 19.1934L28.7529 15.0137C27.4243 13.1216 26.2826 11.6807 25.4609 10.8076C23.8676 9.11512 21.8336 7.08245 18.6406 6.95703L18.3281 6.9502ZM45.5342 5.47754C42.2292 5.47754 39.569 7.96965 36.5801 12.4141C36.3916 12.6942 36.2026 12.982 36.0127 13.2764C37.0778 14.8567 38.1916 16.6132 39.3643 18.5664L41.0088 21.3086C44.9792 27.9231 47.2385 31.326 48.5605 32.9307C50.2609 34.9915 51.4522 35.6055 52.999 35.6055C56.6772 35.6052 57.7677 32.4365 57.8896 28.6406L57.9014 27.874C57.9014 21.994 56.5308 15.4683 53.5107 10.8057C51.3675 7.49849 48.5898 5.47767 45.5342 5.47754Z" fill="#323338"/>
</svg>
