<svg width="30" height="32" viewBox="0 0 30 32" fill="none" xmlns="http://www.w3.org/2000/svg">
<mask id="mask0_2_28" style="mask-type:luminance" maskUnits="userSpaceOnUse" x="0" y="0" width="30" height="32">
<path d="M24.3333 0H5C2.23858 0 0 2.23858 0 5V27C0 29.7614 2.23858 32 5 32H24.3333C27.0948 32 29.3333 29.7614 29.3333 27V5C29.3333 2.23858 27.0948 0 24.3333 0Z" fill="white"/>
</mask>
<g mask="url(#mask0_2_28)">
<path fill-rule="evenodd" clip-rule="evenodd" d="M19.3462 3.32832C19.4331 3.3216 19.5188 3.31939 19.6015 3.32136C19.866 3.32765 20.5104 3.38428 21.0312 3.90527C21.1027 3.97667 21.5602 4.42307 22.0162 4.86745L22.4406 5.28075L22.8419 5.28971C23.104 5.29551 23.3692 5.30128 23.5759 5.30561L23.8326 5.3108C23.8794 5.31169 23.9067 5.31213 23.9195 5.31235C23.9274 5.31247 23.928 5.31251 23.928 5.31251C24.8752 5.31251 25.625 6.01893 25.7699 6.88868C25.7782 6.93865 26.0348 8.67087 26.3982 11.1234C26.6779 13.0113 27.021 15.326 27.3626 17.6288C27.7567 20.2856 28.1508 22.9384 28.4478 24.9281C28.5963 25.9232 28.7203 26.7516 28.8079 27.3316C28.8518 27.6219 28.8863 27.8483 28.91 28.0017C28.922 28.0791 28.9307 28.1345 28.9364 28.1695C28.9371 28.1735 28.9376 28.1769 28.938 28.1799C28.9855 28.4216 28.9776 28.6751 28.9094 28.9208C28.7539 29.4797 28.3095 29.9116 27.7464 30.0511L20.0719 31.9528C19.8556 32.0064 19.6306 32.0145 19.411 31.9765L1.69686 28.9152C0.846927 28.7684 0.264093 27.9772 0.375677 27.122L1.97081 27.3301C0.375677 27.122 0.375677 27.122 0.375677 27.122L0.710051 24.5583C0.911113 23.0164 1.17992 20.9545 1.45089 18.8747C1.99409 14.7052 2.54281 10.4875 2.57629 10.2083L2.57651 10.2064L2.57849 10.1902C2.59866 10.0234 2.62749 9.78523 2.68102 9.56684C2.74391 9.31032 2.86901 8.95064 3.16665 8.6166C3.45249 8.29583 3.78134 8.13069 3.99783 8.03875C4.17609 7.96304 4.37753 7.89768 4.5469 7.84423C4.57643 7.83287 4.60313 7.82327 4.62201 7.81657C4.67607 7.7974 4.74213 7.77528 4.81193 7.75239C4.95478 7.70555 5.15411 7.64215 5.39667 7.56615C5.68726 7.47509 6.04754 7.36356 6.46117 7.23657C6.78609 6.00875 7.35835 4.68559 8.05029 3.58563C9.30159 1.57925 11.1031 0.0741979 13.2552 0.00244387L13.2569 0.00238619C14.2015 -0.0280924 15.1031 0.232533 15.8479 0.834371C17.3972 0.98852 18.5986 1.97327 19.3462 3.32832Z" fill="#101112"/>
<path d="M13.3272 1.59807C14.0462 1.57488 14.6498 1.80671 15.1138 2.31681C15.137 2.36321 15.183 2.38761 15.2062 2.434C15.2987 2.41085 15.3684 2.41056 15.4379 2.41056C16.5048 2.41056 17.4103 3.03613 18.0135 4.19572C18.199 4.56665 18.3374 4.91512 18.4302 5.21656C18.654 5.14841 18.8418 5.09311 18.9835 5.05119V30.2712L1.96136 27.3233C1.96136 27.3233 4.07211 10.9702 4.21136 10.3897C4.30415 9.62426 4.32788 9.60063 5.13975 9.34547C5.17506 9.31875 6.28524 8.97176 7.87672 8.48739C8.03912 7.25821 8.64167 5.68121 9.43011 4.4288C10.5435 2.64279 11.9356 1.64457 13.3272 1.59807ZM13.1423 10.5746C9.2457 10.8298 7.48184 13.544 7.6671 16.2113C7.87584 19.4123 11.0768 19.2971 11.1931 21.2452C11.2163 21.7091 10.9151 22.3824 10.1033 22.4288C8.8507 22.5216 7.29599 21.3389 7.29599 21.3389L6.69314 23.8897C6.69314 23.8897 8.24743 25.5596 11.0772 25.3741C13.42 25.2349 15.0443 23.3559 14.8819 20.5955C14.6496 17.0935 10.7302 16.7685 10.6371 15.2843C10.614 15.0291 10.6368 13.9393 12.3533 13.8233C13.5363 13.7305 14.5343 14.1944 14.5343 14.1944L15.4158 10.8533C15.4158 10.8533 14.6497 10.4819 13.1423 10.5746ZM13.3507 2.52645C11.1934 2.59607 9.31436 5.95953 8.82724 8.16317C9.59272 7.93121 10.4284 7.67615 11.2634 7.42099C11.5418 6.00601 12.214 4.52047 13.0955 3.56943C13.4432 3.22168 13.8144 2.92032 14.1854 2.73479C13.9535 2.59577 13.6752 2.52645 13.3507 2.52645ZM14.766 3.47697C14.3719 3.66245 14.0238 3.96408 13.7687 4.21916C13.1192 4.93819 12.5627 6.02877 12.2843 7.11889C13.2815 6.8174 14.3019 6.49225 15.2296 6.21395C15.2527 5.44848 15.1603 4.31188 14.766 3.47697ZM15.74 3.40796C16.0647 4.24296 16.158 5.2408 16.158 5.93661C16.6679 5.77436 17.1314 5.63456 17.5485 5.51864C17.3167 4.79959 16.807 3.6168 15.74 3.40796Z" fill="#63F44C"/>
<path d="M21.7935 6.86296C21.7935 6.86296 23.834 6.9098 23.9511 6.90983C24.0669 6.90983 24.1831 7.00243 24.2063 7.1416C24.2303 7.28617 27.3612 28.4593 27.3612 28.4593L20.5916 30.1389V5.69368C21.1251 6.21389 21.7769 6.84701 21.7935 6.86296Z" fill="#63F44C"/>
</g>
</svg>
