<svg width="24" height="24" viewBox="0 0 24 24" fill="none" xmlns="http://www.w3.org/2000/svg">
<path d="M9.58888 4.53283C9.00704 4.242 8.36819 4.19606 7.78661 4.30687L6.48575 4.55472C5.53781 4.73533 4.72192 5.34413 4.28156 6.20507C2.7779 9.14479 1.64093 11.5527 1.20238 13.6066C0.750052 15.725 1.02659 17.5392 2.38948 19.1905C3.29323 20.2855 4.84203 20.0642 5.64924 19.1508C6.26388 18.4552 6.96374 17.6498 7.64825 16.8561C8.09902 16.3334 8.75335 16.0326 9.44089 16.0326H14.562C15.2496 16.0326 15.9039 16.3334 16.3547 16.8561C17.0392 17.6498 17.7391 18.4552 18.3537 19.1508C19.1609 20.0642 20.7097 20.2855 21.6135 19.1905C22.9763 17.5392 23.2529 15.725 22.8006 13.6066C22.362 11.5527 21.225 9.14479 19.7214 6.20507C19.281 5.34413 18.4651 4.73533 17.5172 4.55472L16.2163 4.30687C15.6347 4.19606 14.9959 4.242 14.4141 4.53284C14.2561 4.61181 14.094 4.69671 13.9307 4.78521C13.5399 4.99696 13.1207 5.11156 12.7063 5.11156H11.2966C10.8822 5.11156 10.463 4.99696 10.0723 4.78522C9.90894 4.69671 9.74688 4.61181 9.58888 4.53283ZM8.0807 5.85038C8.38356 5.79268 8.66282 5.82658 8.88634 5.93831C9.02625 6.00825 9.17275 6.08492 9.3236 6.16667C9.91708 6.4883 10.5915 6.68284 11.2966 6.68284H12.7063C13.4114 6.68284 14.0859 6.4883 14.6793 6.16667C14.8302 6.08492 14.9767 6.00825 15.1166 5.93831C15.3401 5.82658 15.6194 5.79268 15.9222 5.85038L17.2231 6.09824C17.6967 6.18848 18.1038 6.49314 18.3225 6.9206C19.8407 9.8888 20.8756 12.1161 21.2639 13.9347C21.6385 15.6888 21.3969 16.9844 20.4016 18.1903C20.3055 18.3067 20.1745 18.3612 20.0187 18.3541C19.854 18.3467 19.6699 18.2673 19.5311 18.1103C18.9223 17.4214 18.227 16.6213 17.5446 15.8299C16.7971 14.9632 15.7093 14.4613 14.562 14.4613H9.44089C8.29365 14.4613 7.20587 14.9632 6.45836 15.8299C5.77588 16.6213 5.08058 17.4214 4.47182 18.1103C4.33305 18.2673 4.14895 18.3467 3.98422 18.3541C3.82844 18.3612 3.69741 18.3067 3.60133 18.1903C2.60607 16.9844 2.36448 15.6888 2.73902 13.9347C3.12733 12.1161 4.16224 9.88881 5.68046 6.9206C5.8991 6.49314 6.3062 6.18848 6.77984 6.09824L8.0807 5.85038ZM12.0012 10.5747C12.6087 10.5747 13.1012 10.0822 13.1012 9.47473C13.1012 8.86723 12.6087 8.37476 12.0012 8.37476C11.3937 8.37476 10.9012 8.86723 10.9012 9.47473C10.9012 10.0822 11.3937 10.5747 12.0012 10.5747Z" fill="white"/>
</svg>
